<?xml version="1.0" standalone="no"?><!DOCTYPE svg PUBLIC "-//W3C//DTD SVG 1.1//EN" "http://www.w3.org/Graphics/SVG/1.1/DTD/svg11.dtd"><svg t="1731855410115" class="icon" viewBox="0 0 1086 1024" version="1.1" xmlns="http://www.w3.org/2000/svg" p-id="5161" xmlns:xlink="http://www.w3.org/1999/xlink" width="212.109375" height="200"><path d="M273.128727 299.03903h536.296728c34.536727 0 63.208727 28.020364 63.208727 63.208728v189.626181a63.270788 63.270788 0 0 1-63.208727 63.208728H273.128727a63.270788 63.270788 0 0 1-63.208727-63.208728v-190.277818c0-34.536727 28.020364-62.557091 63.208727-62.557091z" fill="#CAE4FF" p-id="5162"></path><path d="M999.051636 100.289939c-1.303273 0-2.606545-1.303273-2.606545-1.303272v69.725091c0-0.651636 0.651636-1.303273 2.606545-1.303273H90.018909c1.303273 0 2.606545 1.303273 2.606546 1.303273V98.986667c0 0.651636-0.651636 1.303273-2.606546 1.303272h909.032727zM20.293818 98.986667v69.725091C19.642182 207.158303 50.889697 239.088485 89.987879 239.740121h909.032727c39.098182 0 69.725091-31.930182 69.725091-70.376727V98.986667c0.651636-38.446545-30.626909-70.376727-69.725091-71.028364H90.018909C51.572364 27.958303 20.293818 59.888485 20.293818 98.986667z m894.696727 140.101818c-1.954909 0-2.606545-0.651636-2.606545-1.303273v416.395636c0-0.651636 0.651636-1.303273 2.606545-1.303272H174.08c1.954909 0 2.606545 0.651636 2.606545 1.303272V237.133576c0 0.651636-0.651636 1.303273-2.606545 1.303272h740.910545v0.651637zM104.354909 237.133576v416.395636a69.942303 69.942303 0 0 0 69.725091 70.376727h740.258909a69.507879 69.507879 0 0 0 69.725091-70.376727V237.133576a69.942303 69.942303 0 0 0-69.725091-70.376728H174.08c-38.446545 0-69.725091 31.930182-69.725091 70.376728zM395.636364 724.557576h353.186909a29.913212 29.913212 0 0 1 18.245818 11.077818l135.540364 252.183273a36.522667 36.522667 0 0 0 48.872727 14.987636 36.522667 36.522667 0 0 0 14.987636-48.872727l-135.540363-239.150546-518.05091-18.245818s47.569455 57.995636 59.29891 41.704727c5.864727-7.819636 14.336-12.381091 23.458909-13.684363z m-24.110546 13.032727c11.729455-16.290909-59.298909-23.458909-59.298909-23.458909l-179.2 237.847273a35.746909 35.746909 0 0 0 9.122909 50.176c16.290909 11.729455 39.098182 7.168 50.176-9.122909l179.2-255.441455z m274.990546-215.691636l145.314909-134.237091a35.436606 35.436606 0 0 0 1.954909-50.827637c-13.684364-14.336-36.491636-15.639273-50.827637-1.954909l-145.314909 134.237091a16.818424 16.818424 0 0 1-13.684363 1.954909c-17.594182-9.122909-39.749818-2.606545-48.872728 14.987637-9.122909 17.594182-2.606545 39.749818 14.987637 48.872727a87.443394 87.443394 0 0 0 96.442182-13.032727z m-207.872-35.84a18.711273 18.711273 0 0 1 14.336-1.954909l97.093818 50.827636c17.594182 9.122909 39.749818 2.606545 48.872727-14.987636 9.122909-17.594182 2.606545-39.749818-14.987636-48.872728l-97.093818-50.827636a88.498424 88.498424 0 0 0-96.442182 12.381091l-126.417455 113.384727a35.436606 35.436606 0 0 0-2.606545 50.827636 35.467636 35.467636 0 0 0 50.827636 2.606546l126.417455-113.384727z" fill="#0972E7" p-id="5163"></path></svg>